name processed_emg_signals
nRows=74
nColumns=7
 
endheader
time	LGLTMED	LRF	LADDLONG	LST	LTA	LGM
0.0	0.0025882326306081	0.0250542997229665	0.0123251567289801	0.007684124997906	0.0096631071280207	0.0006652493503368
0.001	0.0030608343204618	0.0203357943941776	0.0163401525040962	0.0108369339642773	0.0063761130746948	0.0031064845676639
0.002	0.003533997384419	0.0156301016151308	0.0203785228240375	0.0139516533826749	0.00308507986117	0.0068702076190291
0.003	0.0040074545548408	0.0109401325262291	0.0244382266691655	0.0170259061369781	0.0002081512665956	0.0106234759296147
0.004	0.0044809386798761	0.0062687858321021	0.0285172111413081	0.020057361352346	0.0035017380945147	0.0143638797005294
0.005	0.0049541831095196	0.001618944076696	0.0326134146539198	0.0230437383747993	0.006793839910953	0.0180890483705461
0.006	0.0054269220794218	0.0030065300202265	0.0367247700961162	0.0259828106631827	0.0100826199517525	0.0217966556489476
0.007	0.0058988910913144	0.0076047971550479	0.040849207956617	0.0288724095812642	0.013366247811726	0.02548442439296
0.008	0.0063698272889665	0.0121730449519681	0.0449846593946547	0.03171042807828	0.0166429018151569	0.0291501313069319
0.009000000000000001	0.0068394698286252	0.0167084913870938	0.0491290592461905	0.034494824246767	0.0199107713386057	0.0327916114435341
0.01	0.0073075602429699	0.0212083881187419	0.0532803489553782	0.0372236247469813	0.0231680590801635	0.0364067624904247
0.011	0.0077738427976063	0.0256700237186864	0.0574364794226927	0.0398949280875634	0.0264129832702269	0.039993548828746
0.012	0.0082380648391953	0.0300907267996335	0.0615954137626062	0.0425069077524431	0.0296437798197864	0.0435500053524744
0.013000000000000001	0.0086999771343796	0.0344678690345502	0.0657551299650493	0.0450578151644818	0.0328587044030194	0.0470742410397544
0.014	0.0091593341987365	0.0387988680637859	0.0699136234562416	0.0475459824768994	0.0360560344717137	0.0505644422691338
0.015	0.0096158946150443	0.0430811902863398	0.0740689095555853	0.0499698251842746	0.0392340711996181	0.0540188758750109
0.016	0.0100694213402017	0.0473123535322224	0.0782190258262828	0.0523278445455683	0.0423911413551352	0.0574358919380599
0.017	0.0105196820001981	0.0514899296135749	0.0823620343179106	0.0546186298123892	0.0455255991010619	0.0608139263079378
0.018000000000000002	0.0109664491725233	0.055611546752927	0.0864960236996156	0.0568408602564953	0.0486358277201858	0.0641515028571924
0.019	0.0114095006555047	0.0596748918876878	0.0906191112827942	0.0589933069913053	0.051720241265771	0.0674472354667478
0.02	0.0118486197240997	0.0636777128506589	0.0947294449321987	0.0610748345829189	0.0547772861360786	0.0706998297442136
0.021	0.0122835953717844	0.0676178204271505	0.0988252048645223	0.0630844024467472	0.0578054425722767	0.0739080844767456
0.022	0.0127142225382559	0.0714930902900782	0.1029046053335785	0.0650210660263612	0.0608032260792165	0.0770708928203448
0.023	0.0131403023227694	0.0753014648150508	0.1069658962013674	0.0668839777518558	0.0637691887686655	0.0801872432276109
0.024	0.0135616421829862	0.0790409547779597	0.1110073643945503	0.0686723877758175	0.0667019206246089	0.0832562201162367
0.025	0.0139780561192506	0.0827096409380918	0.1150273352461745	0.0703856444859783	0.0696000506902355	0.0862770042811786
0.026000000000000002	0.0143893648442472	0.0863056755101254	0.1190241737228923	0.0720231947943598	0.0724622481762875	0.0892488730543707
0.027	0.0147953959380113	0.0898272835288025	0.1229962855382524	0.073584584203496	0.0752872234906104	0.0921712002170184
0.028	0.0151959839882712	0.0932727641101343	0.1269421181529212	0.0750694566510093	0.0780737291890483	0.095043455670694
0.029	0.0155909707161613	0.0966404916130362	0.1308601616628865	0.0764775541349722	0.080820560848201	0.09786520487433
0.03	0.0159802050873314	0.0999289167051712	0.1347489495769042	0.077808716123906	0.0835265578609592	0.1006361080548735
0.031	0.0163635434085399	0.103136567336535	0.1386070594846695	0.0790628787570425	0.0861906041560011	0.1033559191997232
0.032	0.0167408494098828	0.106262049624036	0.1424331136176019	0.0802400738420049	0.0888116288426981	0.1060244848396023
0.033	0.017111994312829	0.1093040486499695	0.1462257793047815	0.0813404276583272	0.0913886067830222	0.1086417426309896
0.034	0.0174768568843427	0.1122613291769769	0.1499837693272693	0.0823641595760321	0.0939205590921467	0.1112077197479039
0.035	0.0178353234773448	0.1151327362817707	0.1537058421748069	0.0833115804989407	0.0964065535695077	0.1137225310933595
0.036000000000000004	0.0181872880578259	0.1179171959096256	0.1573908022094262	0.0841830911426652	0.0988457050620689	0.1161863773413341
0.037	0.0185326522189093	0.1206137153514733	0.1610374997408352	0.0849791801572201	0.1012371757615524	0.1185995428203445
0.038	0.0188713251821725	0.1232213836452192	0.1646448310185264	0.0857004221042393	0.1035801754372759	0.1209623932499979
0.039	0.0192032237865819	0.1257393719027534	0.1682117381454171	0.0863474752986015	0.1058739616061203	0.123275373341901
0.04	0.0195282724654232	0.1281669335639043	0.1717372089176415	0.0869210795242136	0.1081178396410002	0.125539004276336
0.041	0.0198464032116547	0.1305034045782986	0.175220276594799	0.0874220536334866	0.1103111628190375	0.1277538810658915
0.042	0.020157555532057	0.1327482035157377	0.1786600196046711	0.0878512930399416	0.1124533323105329	0.1299206698169974
0.043000000000000003	0.020461676390593	0.1349008316053842	0.1820555611860632	0.0882097671131736	0.1145437971097741	0.1320401048999211
0.044	0.0207587201412569	0.1369608727036895	0.1854060689731569	0.0884985164853127	0.1165820539087442	0.1341129860374088
0.045	0.0210486484507529	0.1389279931907815	0.1887107545245753	0.088718650277893	0.1185676469148406	0.1361401753217751
0.046	0.0213314302112577	0.1408019417947734	0.1919688728002764	0.0888713432579309	0.1205001676137496	0.1381225941699572
0.047	0.0216070414435645	0.1425825493432782	0.1951797215894177	0.0889578329317568	0.1223792544786504	0.1400612202258279
0.048	0.0218754651909014	0.1442697284412167	0.1983426408922409	0.0889794165849589	0.1242045926270186	0.1419570842188853
0.049	0.0221366914037294	0.1458634730737739	0.201457012258932	0.0889374482765406	0.1259759134263693	0.1438112667881912
0.05	0.0223907168158394	0.1473638581332837	0.2045222580880915	0.0888333357952004	0.1276929940504454	0.1456248952800752
0.051000000000000004	0.0226375448120272	0.1487710388686565	0.2075378408870817	0.088668537585392	0.1293556569874804	0.1473991405277515
0.052000000000000005	0.022877185287678	0.1500852502559912	0.2105032624960461	0.0884445596505461	0.1309637695022952	0.1491352136204801
0.053	0.0231096545005265	0.1513068062888872	0.2134180632770147	0.0881629524406215	0.1325172430540273	0.1508343626694768
0.054	0.0233349749149105	0.1524360991869734	0.2162818212691971	0.0878253077308824	0.134016032671378	0.152497869577278
0.055	0.0235531750388486	0.1534735985210358	0.2190941513113203	0.0874332554985867	0.1354601362872978	0.1541270468167405
0.056	0.0237642892542683	0.1544198502530753	0.2218547041316244	0.0869884608040658	0.1368495940350781	0.1557232342254295
0.057	0.0239683576407698	0.1552754756894365	0.2245631654058585	0.0864926206824402	0.138184487507925	0.1572877958205998
0.058	0.0241654257933067	0.156041170345142	0.2272192547834518	0.0859474610519518	0.1394649389841524	0.1588221166395671
0.059000000000000004	0.024355544634197	0.1567177027175922	0.2298227248817557	0.0853547336446003	0.1406911106202154	0.1603275996097475
0.06	0.0245387702198714	0.1573059129682033	0.2323733602479948	0.0847162129644875	0.1418632036139109	0.1618056624522778
0.061	0.0247151635428016	0.1578067115110615	0.2348709762883183	0.0840336932789387	0.1429814573401803	0.16325773462267
0.062	0.0248847903290725	0.1582210775084693	0.2373154181633081	0.0833089856472062	0.1440461484620541	0.164685254291676
0.063	0.0250477208320948	0.1585500572739054	0.2397065596494554	0.082543914991247	0.145057590019436	0.1660896653693011
0.064	0.0252040296230001	0.1587947625836796	0.2420443019665383	0.0817403172128326	0.1460161304984223	0.1674724145747957
0.065	0.0253537953782712	0.158956368899424	0.2443285725714477	0.0809000363609558	0.1469221528838183	0.1688349485554935
0.066	0.0254971006652078	0.1590361135042609	0.2465593239199954	0.0800249218532731	0.1477760736972834	0.1701787110574201
0.067	0.0256340317258538	0.1590352935561971	0.2487365321995313	0.0791168257550956	0.1485783420232814	0.171505140150651
0.068	0.0257646782600366	0.1589552640625395	0.2508601960365044	0.0781776001192068	0.1493294385246466	0.1728156655123134
0.069	0.0258891332081544	0.1587974357794856	0.2529303351842221	0.0772090943895858	0.1500298744493472	0.174111705770016
0.07	0.0260074925342724	0.1585632730412404	0.2549469891968121	0.0762131528718565	0.1506801906297474	0.1753946659082363
0.07100000000000001	0.0261198550100755	0.158254291523402	0.2569102160959236	0.0751916122730372	0.1512809564755981	0.1766659347398874
0.07200000000000001	0.0262263220001118	0.1578720559455323	0.2588200910367768	0.0741462993128616	0.1518327689617628	0.1779268824450516
0.073	0.0263269972487502	0.1574181777180431	0.2606767049800074	0.0730790284086969	0.1523362516114874	0.1791788581787039
